<svg baseProfile="full" height="500" version="1.1" width="500" xmlns="http://www.w3.org/2000/svg" xmlns:ev="http://www.w3.org/2001/xml-events" xmlns:xlink="http://www.w3.org/1999/xlink"><defs><filter height="180%" id="id20" width="180%" x="-40%" y="-40%"><feGaussianBlur in="SourceGraphic" stdDeviation="3" /></filter></defs><path d="M 270.3902415234038 395.4984754979108 C 330.84636111071256 386.609197194615 378.4337645338621 330.1064806343497 406.8980139677024 300.13523939642016 C 435.36226340154275 270.16399815849064 431.63776561302853 291.9814860265848 412.7114886926055 245.64226930826317 C 393.78521177218244 199.30305258994153 355.75598025275696 94.96879616055324 312.26662936558716 68.439155804812 C 268.7772784784174 41.90951544907077 240.64868671378056 85.26496023336577 195.26473425675664 112.99406752955696 C 149.88078179973272 140.72317482574812 103.4763307255872 160.76717960909937 85.3468670804676 207.08469228576786 C 67.21740343534798 253.40220496243634 67.60874114257125 306.89887427047074 104.61741603115848 344.58163091289936 C 141.62609091974574 382.26438755532797 209.934121936095 404.38775380120666 270.3902415234038 395.4984754979108" fill="none" stroke="black" stroke-width="2" /><path d="M 270.3902415234038 395.4984754979108 C 330.84636111071256 386.609197194615 378.4337645338621 330.1064806343497 406.8980139677024 300.13523939642016 C 435.36226340154275 270.16399815849064 431.63776561302853 291.9814860265848 412.7114886926055 245.64226930826317 C 393.78521177218244 199.30305258994153 355.75598025275696 94.96879616055324 312.26662936558716 68.439155804812 C 268.7772784784174 41.90951544907077 240.64868671378056 85.26496023336577 195.26473425675664 112.99406752955696 C 149.88078179973272 140.72317482574812 103.4763307255872 160.76717960909937 85.3468670804676 207.08469228576786 C 67.21740343534798 253.40220496243634 67.60874114257125 306.89887427047074 104.61741603115848 344.58163091289936 C 141.62609091974574 382.26438755532797 209.934121936095 404.38775380120666 270.3902415234038 395.4984754979108" fill="#8522d8" filter="url(#id20)" opacity="19.78202232599804" stroke-width="0" style="mix-blend-mode:multiply" transform="rotate(1)" /><ellipse cx="270.72071553370876" cy="191.40849756158704" fill="white" rx="14.430428652217065" ry="2.477173969592809" stroke="rgb(10%,10%,16%)" /><ellipse cx="229.27928446629124" cy="191.40849756158704" fill="white" rx="14.430428652217065" ry="2.477173969592809" stroke="rgb(10%,10%,16%)" /><ellipse cx="270.72071553370876" cy="191.40849756158704" fill="black" rx="2.886085730443413" ry="0.4954347939185618" stroke="rgb(10%,10%,16%)" /><ellipse cx="229.27928446629124" cy="191.40849756158704" fill="black" rx="2.886085730443413" ry="0.4954347939185618" stroke="rgb(10%,10%,16%)" /><path d="M 233.00686043258494 219.82417822262568 Q 250.59981123859149 255.63265324637965 268.19276204459806 225.15379101976498" fill="none" stroke="black" stroke-width="2" /></svg>