<svg baseProfile="full" height="500" version="1.1" width="500" xmlns="http://www.w3.org/2000/svg" xmlns:ev="http://www.w3.org/2001/xml-events" xmlns:xlink="http://www.w3.org/1999/xlink"><defs><filter height="180%" id="id4" width="180%" x="-40%" y="-40%"><feGaussianBlur in="SourceGraphic" stdDeviation="1" /></filter></defs><path d="M 207.0 434.0 C 250.06339097770922 445.0 326.8249198754988 393.42305898749055 356.658477444273 323.3525491562421 C 386.4920350130472 253.28203932499366 399.9330409014998 112.58847050625472 356.167787843871 83.6474508437579 C 312.4025347862422 54.70643118126105 180.7974652137579 141.70643118126105 137.83221215612906 178.6474508437579 C 94.86695909850025 215.58847050625474 127.50796498695279 217.2820393249937 141.34152255572695 268.3525491562421 C 155.17508012450114 319.4230589874905 163.93660902229078 423.0 207.0 434.0" fill="none" stroke="black" stroke-width="2" /><path d="M 207.0 434.0 C 250.06339097770922 445.0 326.8249198754988 393.42305898749055 356.658477444273 323.3525491562421 C 386.4920350130472 253.28203932499366 399.9330409014998 112.58847050625472 356.167787843871 83.6474508437579 C 312.4025347862422 54.70643118126105 180.7974652137579 141.70643118126105 137.83221215612906 178.6474508437579 C 94.86695909850025 215.58847050625474 127.50796498695279 217.2820393249937 141.34152255572695 268.3525491562421 C 155.17508012450114 319.4230589874905 163.93660902229078 423.0 207.0 434.0" fill="#eaf793" filter="url(#id4)" opacity="0.8" stroke-width="0" style="mix-blend-mode:multiply" transform="rotate(-1)" /><ellipse cx="265.38070075942517" cy="194.8885057407116" fill="white" rx="13.234398915483458" ry="13.04499559280128" stroke="rgb(10%,10%,16%)" /><ellipse cx="234.6192992405748" cy="194.8885057407116" fill="white" rx="13.234398915483458" ry="13.04499559280128" stroke="rgb(10%,10%,16%)" /><ellipse cx="265.38070075942517" cy="194.8885057407116" fill="black" rx="2.6468797830966917" ry="2.608999118560256" stroke="rgb(10%,10%,16%)" /><ellipse cx="234.6192992405748" cy="194.8885057407116" fill="black" rx="2.6468797830966917" ry="2.608999118560256" stroke="rgb(10%,10%,16%)" /><path d="M 236.61668669396082 230.37315998293386 Q 250.0875846575164 238.5175553608558 263.55848262107196 222.83390173455135" fill="none" stroke="black" stroke-width="2" /></svg>